<svg xmlns="http://www.w3.org/2000/svg" viewBox="0 0 25 25" xml:space="preserve" width="25" height="25"><path style="fill-rule:evenodd;clip-rule:evenodd" d="m24.388 21.434-5.431-5.431c-.029-.029-.063-.049-.093-.076a10.23 10.23 0 0 0 1.692-5.648C20.556 4.602 15.955 0 10.278 0S0 4.602 0 10.278s4.602 10.278 10.278 10.278a10.23 10.23 0 0 0 5.648-1.692c.027.03.047.064.076.093l5.431 5.431a2.09 2.09 0 0 0 2.955-2.955m-14.11-4.44a6.714 6.714 0 1 1 0-13.43 6.715 6.715 0 0 1 0 13.43"/><g/><g/><g/><g/><g/><g/><g/><g/><g/><g/><g/><g/><g/><g/><g/></svg>